<mxfile host="app.diagrams.net" modified="2023-09-27T21:23:26.885Z" agent="Mozilla/5.0 (Windows NT 10.0; Win64; x64) AppleWebKit/537.36 (KHTML, like Gecko) Chrome/117.0.0.0 Safari/537.36 Edg/117.0.2045.41" etag="jfyYeeV0lz7AJo1qDwbL" version="21.8.2" type="github">
  <diagram name="Page-1" id="RptNpgB0NOVmOBHb8Ufr">
    <mxGraphModel dx="905" dy="663" grid="1" gridSize="10" guides="1" tooltips="1" connect="1" arrows="1" fold="1" page="1" pageScale="1" pageWidth="827" pageHeight="1169" math="0" shadow="0">
      <root>
        <mxCell id="0" />
        <mxCell id="1" parent="0" />
        <mxCell id="SpCbUfIMT-LrCJDx6mqJ-2" value="SNCF" style="swimlane;whiteSpace=wrap;html=1;" vertex="1" parent="1">
          <mxGeometry y="80" width="90" height="80" as="geometry" />
        </mxCell>
        <mxCell id="SpCbUfIMT-LrCJDx6mqJ-4" value="Train" style="swimlane;whiteSpace=wrap;html=1;" vertex="1" parent="1">
          <mxGeometry x="310" y="32.5" width="140" height="175" as="geometry" />
        </mxCell>
        <mxCell id="SpCbUfIMT-LrCJDx6mqJ-8" value="Type" style="text;html=1;align=center;verticalAlign=middle;resizable=0;points=[];autosize=1;strokeColor=none;fillColor=none;" vertex="1" parent="SpCbUfIMT-LrCJDx6mqJ-4">
          <mxGeometry x="15" y="72.5" width="50" height="30" as="geometry" />
        </mxCell>
        <mxCell id="SpCbUfIMT-LrCJDx6mqJ-7" value="#numéro" style="text;html=1;align=center;verticalAlign=middle;resizable=0;points=[];autosize=1;strokeColor=none;fillColor=none;" vertex="1" parent="SpCbUfIMT-LrCJDx6mqJ-4">
          <mxGeometry x="5" y="33" width="70" height="30" as="geometry" />
        </mxCell>
        <mxCell id="SpCbUfIMT-LrCJDx6mqJ-9" value="âge" style="text;html=1;align=center;verticalAlign=middle;resizable=0;points=[];autosize=1;strokeColor=none;fillColor=none;" vertex="1" parent="SpCbUfIMT-LrCJDx6mqJ-4">
          <mxGeometry x="20" y="115" width="40" height="30" as="geometry" />
        </mxCell>
        <mxCell id="SpCbUfIMT-LrCJDx6mqJ-5" value="Constructeurs" style="swimlane;whiteSpace=wrap;html=1;" vertex="1" parent="1">
          <mxGeometry x="680" y="34.25" width="140" height="177.5" as="geometry" />
        </mxCell>
        <mxCell id="SpCbUfIMT-LrCJDx6mqJ-10" value="#idConstructeur" style="text;html=1;align=center;verticalAlign=middle;resizable=0;points=[];autosize=1;strokeColor=none;fillColor=none;" vertex="1" parent="SpCbUfIMT-LrCJDx6mqJ-5">
          <mxGeometry y="25.5" width="110" height="30" as="geometry" />
        </mxCell>
        <mxCell id="SpCbUfIMT-LrCJDx6mqJ-12" value="adresse" style="text;html=1;align=center;verticalAlign=middle;resizable=0;points=[];autosize=1;strokeColor=none;fillColor=none;" vertex="1" parent="SpCbUfIMT-LrCJDx6mqJ-5">
          <mxGeometry x="10" y="107.5" width="70" height="30" as="geometry" />
        </mxCell>
        <mxCell id="SpCbUfIMT-LrCJDx6mqJ-11" value="nom" style="text;html=1;align=center;verticalAlign=middle;resizable=0;points=[];autosize=1;strokeColor=none;fillColor=none;" vertex="1" parent="SpCbUfIMT-LrCJDx6mqJ-5">
          <mxGeometry x="10" y="67.5" width="50" height="30" as="geometry" />
        </mxCell>
        <mxCell id="SpCbUfIMT-LrCJDx6mqJ-6" value="Text" style="text;html=1;align=center;verticalAlign=middle;resizable=0;points=[];autosize=1;strokeColor=none;fillColor=none;" vertex="1" parent="1">
          <mxGeometry x="15" y="108" width="50" height="30" as="geometry" />
        </mxCell>
        <mxCell id="SpCbUfIMT-LrCJDx6mqJ-13" value="Technicien" style="swimlane;whiteSpace=wrap;html=1;" vertex="1" parent="1">
          <mxGeometry y="470" width="200" height="200" as="geometry" />
        </mxCell>
        <mxCell id="SpCbUfIMT-LrCJDx6mqJ-14" value="#idtechnicien" style="text;html=1;align=center;verticalAlign=middle;resizable=0;points=[];autosize=1;strokeColor=none;fillColor=none;" vertex="1" parent="SpCbUfIMT-LrCJDx6mqJ-13">
          <mxGeometry y="28" width="90" height="30" as="geometry" />
        </mxCell>
        <mxCell id="SpCbUfIMT-LrCJDx6mqJ-15" value="nom" style="text;html=1;align=center;verticalAlign=middle;resizable=0;points=[];autosize=1;strokeColor=none;fillColor=none;" vertex="1" parent="SpCbUfIMT-LrCJDx6mqJ-13">
          <mxGeometry x="20" y="70" width="50" height="30" as="geometry" />
        </mxCell>
        <mxCell id="SpCbUfIMT-LrCJDx6mqJ-17" value="Ancienneté" style="text;html=1;align=center;verticalAlign=middle;resizable=0;points=[];autosize=1;strokeColor=none;fillColor=none;" vertex="1" parent="SpCbUfIMT-LrCJDx6mqJ-13">
          <mxGeometry x="5" y="138" width="80" height="30" as="geometry" />
        </mxCell>
        <mxCell id="SpCbUfIMT-LrCJDx6mqJ-16" value="genre" style="text;html=1;align=center;verticalAlign=middle;resizable=0;points=[];autosize=1;strokeColor=none;fillColor=none;" vertex="1" parent="SpCbUfIMT-LrCJDx6mqJ-13">
          <mxGeometry x="20" y="108" width="50" height="30" as="geometry" />
        </mxCell>
        <mxCell id="SpCbUfIMT-LrCJDx6mqJ-21" value="Contrat" style="swimlane;whiteSpace=wrap;html=1;" vertex="1" parent="1">
          <mxGeometry x="520" y="470" width="200" height="200" as="geometry" />
        </mxCell>
        <mxCell id="SpCbUfIMT-LrCJDx6mqJ-22" value="#idcontrat" style="text;html=1;align=center;verticalAlign=middle;resizable=0;points=[];autosize=1;strokeColor=none;fillColor=none;" vertex="1" parent="SpCbUfIMT-LrCJDx6mqJ-21">
          <mxGeometry x="17" y="48" width="80" height="30" as="geometry" />
        </mxCell>
        <mxCell id="SpCbUfIMT-LrCJDx6mqJ-23" value="Congé" style="text;html=1;align=center;verticalAlign=middle;resizable=0;points=[];autosize=1;strokeColor=none;fillColor=none;" vertex="1" parent="SpCbUfIMT-LrCJDx6mqJ-21">
          <mxGeometry x="25" y="85" width="60" height="30" as="geometry" />
        </mxCell>
        <mxCell id="SpCbUfIMT-LrCJDx6mqJ-24" value="heures hebdomadaire" style="text;html=1;align=center;verticalAlign=middle;resizable=0;points=[];autosize=1;strokeColor=none;fillColor=none;" vertex="1" parent="SpCbUfIMT-LrCJDx6mqJ-21">
          <mxGeometry x="10" y="120" width="140" height="30" as="geometry" />
        </mxCell>
        <mxCell id="SpCbUfIMT-LrCJDx6mqJ-26" value="" style="rounded=1;whiteSpace=wrap;html=1;" vertex="1" parent="1">
          <mxGeometry x="380" y="280" width="120" height="60" as="geometry" />
        </mxCell>
      </root>
    </mxGraphModel>
  </diagram>
</mxfile>
